<svg width="800" height="560" viewBox="0 0 800 560" fill="none" xmlns="http://www.w3.org/2000/svg">
  <rect width="800" height="560" rx="36" fill="#FFF7EE"/>
  <circle cx="678" cy="105" r="42" fill="#FFC76A"/>
  <rect y="408" width="800" height="152" fill="#D6E9D1"/>
  <rect x="110" y="220" width="582" height="160" rx="22" fill="#FFE3B7"/>
  <path d="M150 220C150 164.772 194.772 120 250 120H552C607.228 120 652 164.772 652 220H150Z" fill="#E4735E"/>
  <rect x="176" y="252" width="126" height="86" rx="16" fill="#FFFFFF"/>
  <rect x="338" y="252" width="126" height="86" rx="16" fill="#FFFFFF"/>
  <rect x="500" y="252" width="126" height="86" rx="16" fill="#FFFFFF"/>
  <circle cx="272" cy="410" r="34" fill="#F2C29B"/>
  <rect x="236" y="444" width="78" height="70" rx="18" fill="#3D8B7D"/>
  <circle cx="530" cy="410" r="34" fill="#F2C29B"/>
  <rect x="494" y="444" width="78" height="70" rx="18" fill="#7C5AE2"/>
  <text x="96" y="474" fill="#17324D" font-family="Verdana, sans-serif" font-size="28" font-weight="700">ናይ ገበያ ንግሆ</text>
  <text x="96" y="510" fill="#50657A" font-family="Verdana, sans-serif" font-size="22">A morning trip to the market</text>
</svg>